<svg width="1668" height="910" viewBox="0 0 1668 910" fill="none" xmlns="http://www.w3.org/2000/svg">
<rect width="1668" height="910" fill="#222222"/>
<path d="M571.922 493.961V505H517.711V493.961H571.922ZM520.453 402.625V505H506.883V402.625H520.453ZM564.75 446.641V457.68H517.711V446.641H564.75ZM571.219 402.625V413.734H517.711V402.625H571.219ZM593.016 402.625H606.164L639.703 486.086L673.172 402.625H686.391L644.766 505H634.5L593.016 402.625ZM588.727 402.625H600.328L602.227 465.062V505H588.727V402.625ZM679.008 402.625H690.609V505H677.109V465.062L679.008 402.625ZM786.656 457.117H760.711L760.57 446.219H784.125C788.016 446.219 791.414 445.562 794.32 444.25C797.227 442.938 799.477 441.062 801.07 438.625C802.711 436.141 803.531 433.188 803.531 429.766C803.531 426.016 802.805 422.969 801.352 420.625C799.945 418.234 797.766 416.5 794.812 415.422C791.906 414.297 788.203 413.734 783.703 413.734H763.734V505H750.164V402.625H783.703C788.953 402.625 793.641 403.164 797.766 404.242C801.891 405.273 805.383 406.914 808.242 409.164C811.148 411.367 813.352 414.18 814.852 417.602C816.352 421.023 817.102 425.125 817.102 429.906C817.102 434.125 816.023 437.945 813.867 441.367C811.711 444.742 808.711 447.508 804.867 449.664C801.07 451.82 796.617 453.203 791.508 453.812L786.656 457.117ZM786.023 505H755.367L763.031 493.961H786.023C790.336 493.961 793.992 493.211 796.992 491.711C800.039 490.211 802.359 488.102 803.953 485.383C805.547 482.617 806.344 479.359 806.344 475.609C806.344 471.812 805.664 468.531 804.305 465.766C802.945 463 800.812 460.867 797.906 459.367C795 457.867 791.25 457.117 786.656 457.117H767.32L767.461 446.219H793.898L796.781 450.156C801.703 450.578 805.875 451.984 809.297 454.375C812.719 456.719 815.32 459.719 817.102 463.375C818.93 467.031 819.844 471.062 819.844 475.469C819.844 481.844 818.438 487.234 815.625 491.641C812.859 496 808.945 499.328 803.883 501.625C798.82 503.875 792.867 505 786.023 505ZM839.883 402.625H873.773C881.461 402.625 887.953 403.797 893.25 406.141C898.594 408.484 902.648 411.953 905.414 416.547C908.227 421.094 909.633 426.695 909.633 433.352C909.633 438.039 908.672 442.328 906.75 446.219C904.875 450.062 902.156 453.344 898.594 456.062C895.078 458.734 890.859 460.727 885.938 462.039L882.141 463.516H850.289L850.148 452.477H874.195C879.07 452.477 883.125 451.633 886.359 449.945C889.594 448.211 892.031 445.891 893.672 442.984C895.312 440.078 896.133 436.867 896.133 433.352C896.133 429.414 895.359 425.969 893.812 423.016C892.266 420.062 889.828 417.789 886.5 416.195C883.219 414.555 878.977 413.734 873.773 413.734H853.453V505H839.883V402.625ZM899.719 505L874.828 458.594L888.961 458.523L914.203 504.156V505H899.719ZM993.656 493.961V505H939.445V493.961H993.656ZM942.188 402.625V505H928.617V402.625H942.188ZM986.484 446.641V457.68H939.445V446.641H986.484ZM992.953 402.625V413.734H939.445V402.625H992.953ZM1043.51 489.461L1073.67 402.625H1088.37L1050.47 505H1039.99L1043.51 489.461ZM1015.31 402.625L1045.2 489.461L1048.92 505H1038.45L1000.62 402.625H1015.31ZM1167.19 493.961V505H1112.98V493.961H1167.19ZM1115.72 402.625V505H1102.15V402.625H1115.72ZM1160.02 446.641V457.68H1112.98V446.641H1160.02ZM1166.48 402.625V413.734H1112.98V402.625H1166.48Z" fill="white"/>
</svg>
