<svg width="104" height="104" viewBox="0 0 104 104" fill="none" xmlns="http://www.w3.org/2000/svg">
<path d="M44.59 16.7267L7.88667 78C7.12993 79.3105 6.72952 80.7963 6.72528 82.3096C6.72105 83.8229 7.11313 85.3109 7.86251 86.6256C8.6119 87.9403 9.69248 89.0359 10.9967 89.8034C12.301 90.5708 13.7835 90.9834 15.2967 91H88.7033C90.2165 90.9834 91.699 90.5708 93.0033 89.8034C94.3075 89.0359 95.3881 87.9403 96.1375 86.6256C96.8869 85.3109 97.279 83.8229 97.2747 82.3096C97.2705 80.7963 96.8701 79.3105 96.1133 78L59.41 16.7267C58.6375 15.4531 57.5498 14.4002 56.2518 13.6694C54.9539 12.9387 53.4895 12.5548 52 12.5548C50.5105 12.5548 49.0461 12.9387 47.7482 13.6694C46.4502 14.4002 45.3625 15.4531 44.59 16.7267V16.7267Z" stroke="#0094FF" stroke-width="2" stroke-linecap="round" stroke-linejoin="round"/>
<path opacity="0.8" d="M58.704 47H69.968L58.448 79H45.456L33.936 47H45.392L51.984 71.384L58.704 47Z" fill="#0094FF"/>
</svg>
